# xmcd
#
# Track frame offsets:
#	182
#	14762
#	32827
#	43005
#	52732
#	62517
#	72020
#	82430
#	94247
#	104065
#	115955
#	126295
#	137022
#	149832
#	161995
#	172370
#	182492
#
# Disc length: 2580 seconds
# Revision: 3
# Processed by: cddbd v1.5.2PL0 Copyright (c) Steve Scherf et al.
# Submitted via: dBpowerAMP V12.0
#
DISCID=0a0a1211
DTITLE=Various Artist - Great Sounds of Country, Vol. 4
DYEAR=1994
DGENRE=Country
TTITLE0=Loretta Lynn - Goal Miner's Daughter
TTITLE1=Rick Nelson - Garden Party
TTITLE2=Patsy Cline - Three Cigarettes in an Ashtray
TTITLE3=Donna Fargo - Sticks and Stones
TTITLE4=Merle Haggard - Mama Tried
TTITLE5=Charley Pride - Kiss an Angel Good Morning
TTITLE6=Joe Stamply - She's a Lady
TTITLE7=Hank Thomson - Wait a Little Longer Baby
TTITLE8=Jimmy Dean - Freight Train Blues
TTITLE9=Red Sovine - Too Much
TTITLE10=Jim Glazer - Boll Weevil
TTITLE11=Roger Miller - King of the Road
TTITLE12=George Jones - I Love You Because
TTITLE13=Johnny Harton - Done Rovin'
TTITLE14=Buck Owens - Sweethearts in Heaven
TTITLE15=The Dillards - Rueben's Train
TTITLE16=Patsy Cline - Just out of Reach
EXTD=
EXTT0=
EXTT1=
EXTT2=
EXTT3=
EXTT4=
EXTT5=
EXTT6=
EXTT7=
EXTT8=
EXTT9=
EXTT10=
EXTT11=
EXTT12=
EXTT13=
EXTT14=
EXTT15=
EXTT16=
PLAYORDER=
